<?xml version="1.0" encoding="utf-8" standalone="no"?>
<!DOCTYPE svg PUBLIC "-//W3C//DTD SVG 1.1//EN"
  "http://www.w3.org/Graphics/SVG/1.1/DTD/svg11.dtd">
<svg xmlns:xlink="http://www.w3.org/1999/xlink" width="482.4pt" height="504pt" viewBox="0 0 482.4 504" xmlns="http://www.w3.org/2000/svg" version="1.1">
 <metadata>
  <rdf:RDF xmlns:dc="http://purl.org/dc/elements/1.1/" xmlns:cc="http://creativecommons.org/ns#" xmlns:rdf="http://www.w3.org/1999/02/22-rdf-syntax-ns#">
   <cc:Work>
    <dc:type rdf:resource="http://purl.org/dc/dcmitype/StillImage"/>
    <dc:date>2026-09-11T21:12:58.058384</dc:date>
    <dc:format>image/svg+xml</dc:format>
    <dc:creator>
     <cc:Agent>
      <dc:title>Matplotlib v3.11.0, https://matplotlib.org/</dc:title>
     </cc:Agent>
    </dc:creator>
   </cc:Work>
  </rdf:RDF>
 </metadata>
 <defs>
  <style type="text/css">*{stroke-linejoin: round; stroke-linecap: butt}</style>
 </defs>
 <g id="figure_1">
  <g id="patch_1">
   <path d="M 0 504 
L 482.4 504 
L 482.4 0 
L 0 0 
z
" style="fill: #ffffff"/>
  </g>
  <g id="axes_1">
   <g id="patch_2">
    <path d="M 77.184 202.831145 
L 236.671347 202.831145 
L 236.671347 60.48 
L 77.184 60.48 
z
" style="fill: #ffffff"/>
   </g>
   <g id="matplotlib.axis_1">
    <g id="xtick_1">
     <g id="line2d_1">
      <defs>
       <path id="m65087b0567" d="M 0 0 
L 0 3.5 
" style="stroke: #000000; stroke-width: 0.8"/>
      </defs>
      <g>
       <use xlink:href="#m65087b0567" x="115.028455" y="202.831145" style="stroke: #000000; stroke-width: 0.8"/>
      </g>
     </g>
     <g id="text_1">
      <text style="font-size: 10.94415px; font-family: 'STIXGeneral'; text-anchor: middle" x="115.028455" y="218.039257" transform="rotate(-0 115.028455 218.039257)">0.5</text>
     </g>
    </g>
    <g id="xtick_2">
     <g id="line2d_2">
      <g>
       <use xlink:href="#m65087b0567" x="155.576086" y="202.831145" style="stroke: #000000; stroke-width: 0.8"/>
      </g>
     </g>
     <g id="text_2">
      <text style="font-size: 10.94415px; font-family: 'STIXGeneral'; text-anchor: middle" x="155.576086" y="218.039257" transform="rotate(-0 155.576086 218.039257)">1.0</text>
     </g>
    </g>
    <g id="xtick_3">
     <g id="line2d_3">
      <g>
       <use xlink:href="#m65087b0567" x="196.123716" y="202.831145" style="stroke: #000000; stroke-width: 0.8"/>
      </g>
     </g>
     <g id="text_3">
      <text style="font-size: 10.94415px; font-family: 'STIXGeneral'; text-anchor: middle" x="196.123716" y="218.039257" transform="rotate(-0 196.123716 218.039257)">1.5</text>
     </g>
    </g>
    <g id="xtick_4">
     <g id="line2d_4">
      <g>
       <use xlink:href="#m65087b0567" x="236.671347" y="202.831145" style="stroke: #000000; stroke-width: 0.8"/>
      </g>
     </g>
     <g id="text_4">
      <text style="font-size: 10.94415px; font-family: 'STIXGeneral'; text-anchor: middle" x="236.671347" y="218.039257" transform="rotate(-0 236.671347 218.039257)">2.0</text>
     </g>
    </g>
    <g id="text_5">
     <text style="font-size: 10.94415px; font-family: 'STIXGeneral'; text-anchor: middle" x="156.927673" y="232.983407" transform="rotate(-0 156.927673 232.983407)">Time</text>
    </g>
   </g>
   <g id="matplotlib.axis_2">
    <g id="ytick_1">
     <g id="line2d_5">
      <path d="M 77.184 191.637935 
L 236.671347 191.637935 
" clip-path="url(#pb0860fc5a0)" style="fill: none; stroke: #dddddd; stroke-width: 0.3; stroke-linecap: square"/>
     </g>
     <g id="line2d_6">
      <defs>
       <path id="m01119f259a" d="M 0 0 
L -3.5 0 
" style="stroke: #000000; stroke-width: 0.8"/>
      </defs>
      <g>
       <use xlink:href="#m01119f259a" x="77.184" y="191.637935" style="stroke: #000000; stroke-width: 0.8"/>
      </g>
     </g>
     <g id="text_6">
      <text style="font-size: 10.94415px; font-family: 'STIXGeneral'; text-anchor: end" x="70.184" y="195.741992" transform="rotate(-0 70.184 195.741992)">−15</text>
     </g>
    </g>
    <g id="ytick_2">
     <g id="line2d_7">
      <path d="M 77.184 151.887698 
L 236.671347 151.887698 
" clip-path="url(#pb0860fc5a0)" style="fill: none; stroke: #dddddd; stroke-width: 0.3; stroke-linecap: square"/>
     </g>
     <g id="line2d_8">
      <g>
       <use xlink:href="#m01119f259a" x="77.184" y="151.887698" style="stroke: #000000; stroke-width: 0.8"/>
      </g>
     </g>
     <g id="text_7">
      <text style="font-size: 10.94415px; font-family: 'STIXGeneral'; text-anchor: end" x="70.184" y="155.991754" transform="rotate(-0 70.184 155.991754)">0</text>
     </g>
    </g>
    <g id="ytick_3">
     <g id="line2d_9">
      <path d="M 77.184 112.137461 
L 236.671347 112.137461 
" clip-path="url(#pb0860fc5a0)" style="fill: none; stroke: #dddddd; stroke-width: 0.3; stroke-linecap: square"/>
     </g>
     <g id="line2d_10">
      <g>
       <use xlink:href="#m01119f259a" x="77.184" y="112.137461" style="stroke: #000000; stroke-width: 0.8"/>
      </g>
     </g>
     <g id="text_8">
      <text style="font-size: 10.94415px; font-family: 'STIXGeneral'; text-anchor: end" x="70.184" y="116.241517" transform="rotate(-0 70.184 116.241517)">15</text>
     </g>
    </g>
    <g id="ytick_4">
     <g id="line2d_11">
      <path d="M 77.184 72.387224 
L 236.671347 72.387224 
" clip-path="url(#pb0860fc5a0)" style="fill: none; stroke: #dddddd; stroke-width: 0.3; stroke-linecap: square"/>
     </g>
     <g id="line2d_12">
      <g>
       <use xlink:href="#m01119f259a" x="77.184" y="72.387224" style="stroke: #000000; stroke-width: 0.8"/>
      </g>
     </g>
     <g id="text_9">
      <text style="font-size: 10.94415px; font-family: 'STIXGeneral'; text-anchor: end" x="70.184" y="76.49128" transform="rotate(-0 70.184 76.49128)">30</text>
     </g>
    </g>
    <g id="text_10">
     <!-- $x_1$ -->
     <g transform="translate(45.00707 136.252115) rotate(-90)">
      <text>
       <tspan x="0" y="-0.171875" style="font-style: italic; font-size: 10.94415px; font-family: 'STIXGeneral'">x</tspan>
       <tspan x="4.856232" y="1.469747" style="font-size: 7.660905px; font-family: 'STIXGeneral'">1</tspan>
      </text>
     </g>
    </g>
   </g>
   <g id="line2d_13">
    <path d="M 77.184 100.372665 
L 79.887175 106.497047 
L 82.590351 101.443024 
L 85.293526 108.122971 
L 87.996701 121.060794 
L 90.699877 138.945577 
L 93.403052 155.029717 
L 96.106228 164.294271 
L 98.809403 164.99046 
L 101.512578 155.817123 
L 104.215754 142.103257 
L 106.918929 127.001699 
L 109.622104 116.779422 
L 112.32528 112.58257 
L 115.028455 113.23211 
L 117.731631 114.253909 
L 120.434806 110.713367 
L 123.137981 101.180257 
L 125.841157 89.514114 
L 128.544332 82.69448 
L 131.247507 88.661019 
L 133.950683 108.885662 
L 136.653858 138.477777 
L 139.357034 166.205553 
L 142.060209 181.20791 
L 144.763384 178.244499 
L 147.46656 160.509494 
L 150.169735 137.003191 
L 152.87291 117.046834 
L 155.576086 104.705919 
L 158.279261 97.782754 
L 160.982437 90.960618 
L 163.685612 81.289007 
L 166.388787 71.652265 
L 169.091963 69.542475 
L 171.795138 82.013958 
L 174.498313 110.044475 
L 177.201489 146.402144 
L 179.904664 178.531468 
L 182.60784 194.824462 
L 185.311015 190.278612 
L 188.01419 168.406907 
L 190.717366 138.391354 
L 193.420541 109.979495 
L 196.123716 89.159321 
L 198.826892 77.149397 
L 201.530067 72.30838 
L 204.233242 73.079812 
L 206.936418 79.514798 
L 209.639593 92.63589 
L 212.342769 112.398447 
L 215.045944 136.159917 
L 217.749119 158.789327 
L 220.452295 174.454065 
L 223.15547 178.867445 
L 225.858645 170.81204 
L 228.561821 152.331905 
L 231.264996 127.910166 
L 233.968172 103.210683 
L 236.671347 83.821373 
" clip-path="url(#pb0860fc5a0)" style="fill: none; stroke: #0072b2; stroke-linecap: square"/>
   </g>
   <g id="line2d_14">
    <path d="M 77.184 100.160914 
L 79.887175 88.050555 
L 82.590351 94.275995 
L 85.293526 101.715208 
L 87.996701 121.648397 
L 90.699877 136.770686 
L 93.403052 150.853595 
L 96.106228 155.881035 
L 98.809403 153.414691 
L 101.512578 146.68471 
L 104.215754 136.791013 
L 106.918929 128.326368 
L 109.622104 121.448061 
L 112.32528 117.296832 
L 115.028455 116.615065 
L 117.731631 117.144004 
L 120.434806 117.353011 
L 123.137981 114.108761 
L 125.841157 107.000496 
L 128.544332 99.652642 
L 131.247507 97.686814 
L 133.950683 107.009963 
L 136.653858 127.94181 
L 139.357034 154.324758 
L 142.060209 175.70689 
L 144.763384 182.601105 
L 147.46656 172.707301 
L 150.169735 151.648345 
L 152.87291 129.875807 
L 155.576086 115.733729 
L 158.279261 110.733646 
L 160.982437 109.6334 
L 163.685612 105.551182 
L 166.388787 96.19212 
L 169.091963 86.644403 
L 171.795138 86.321479 
L 174.498313 102.132548 
L 177.201489 132.60075 
L 179.904664 167.196726 
L 182.60784 191.753301 
L 185.311015 196.360638 
L 188.01419 180.793563 
L 190.717366 153.954184 
L 193.420541 128.067891 
L 196.123716 111.68453 
L 198.826892 105.951746 
L 201.530067 106.155562 
L 204.233242 106.69972 
L 206.936418 105.678781 
L 209.639593 105.884153 
L 212.342769 111.937043 
L 215.045944 126.038946 
L 217.749119 145.518886 
L 220.452295 163.849135 
L 223.15547 174.198681 
L 225.858645 173.026898 
L 228.561821 161.495376 
L 231.264996 144.244238 
L 233.968172 126.796634 
L 236.671347 113.376687 
" clip-path="url(#pb0860fc5a0)" style="fill: none; stroke-dasharray: 3.7,1.6; stroke-dashoffset: 0; stroke: #e69f00"/>
   </g>
   <g id="line2d_15">
    <path d="M 77.184 99.266225 
L 79.887175 91.149774 
L 82.590351 96.843826 
L 85.293526 106.056368 
L 87.996701 120.588337 
L 90.699877 137.448162 
L 93.403052 154.063796 
L 96.106228 164.597513 
L 98.809403 164.368056 
L 101.512578 153.100523 
L 104.215754 136.343541 
L 106.918929 121.747362 
L 109.622104 114.366674 
L 112.32528 113.952505 
L 115.028455 116.018831 
L 117.731631 115.845816 
L 120.434806 111.186584 
L 123.137981 103.147185 
L 125.841157 94.522339 
L 128.544332 88.801846 
L 131.247507 89.240071 
L 133.950683 98.755085 
L 136.653858 117.90243 
L 139.357034 143.277292 
L 142.060209 166.495696 
L 144.763384 177.769846 
L 147.46656 170.851159 
L 150.169735 148.257312 
L 152.87291 120.164135 
L 155.576086 99.274787 
L 158.279261 92.16525 
L 160.982437 96.129848 
L 163.685612 101.128694 
L 166.388787 98.82372 
L 169.091963 88.673469 
L 171.795138 79.982231 
L 174.498313 84.282867 
L 177.201489 107.546402 
L 179.904664 143.516217 
L 182.60784 177.715529 
L 185.311015 194.473292 
L 188.01419 187.501785 
L 190.717366 161.413015 
L 193.420541 129.645008 
L 196.123716 104.342062 
L 198.826892 91.901511 
L 201.530067 89.463996 
L 204.233242 91.384544 
L 206.936418 92.336809 
L 209.639593 93.263536 
L 212.342769 97.37848 
L 215.045944 109.301513 
L 217.749119 128.139782 
L 220.452295 150.196 
L 223.15547 167.615686 
L 225.858645 175.931981 
L 228.561821 172.401084 
L 231.264996 160.517742 
L 233.968172 143.46939 
L 236.671347 126.855515 
" clip-path="url(#pb0860fc5a0)" style="fill: none; stroke-dasharray: 6.4,1.6,1,1.6; stroke-dashoffset: 0; stroke: #009e73"/>
   </g>
   <g id="line2d_16">
    <path d="M 77.184 103.7576 
L 79.887175 102.698901 
L 82.590351 105.189479 
L 85.293526 115.106139 
L 87.996701 118.731503 
L 90.699877 122.096131 
L 93.403052 127.457278 
L 96.106228 129.547555 
L 98.809403 127.55922 
L 101.512578 123.151606 
L 104.215754 118.792728 
L 106.918929 116.069122 
L 109.622104 115.370577 
L 112.32528 115.253246 
L 115.028455 115.393218 
L 117.731631 123.052323 
L 120.434806 133.142536 
L 123.137981 134.486619 
L 125.841157 130.017101 
L 128.544332 125.706483 
L 131.247507 126.691953 
L 133.950683 131.245865 
L 136.653858 134.625582 
L 139.357034 135.279281 
L 142.060209 133.26735 
L 144.763384 129.277671 
L 147.46656 124.609521 
L 150.169735 120.78769 
L 152.87291 118.893034 
L 155.576086 118.858372 
L 158.279261 119.200295 
L 160.982437 121.469729 
L 163.685612 130.769426 
L 166.388787 139.524943 
L 169.091963 140.873263 
L 171.795138 137.483683 
L 174.498313 131.626236 
L 177.201489 126.405173 
L 179.904664 126.360196 
L 182.60784 130.751648 
L 185.311015 134.574594 
L 188.01419 135.834565 
L 190.717366 134.426162 
L 193.420541 130.872197 
L 196.123716 126.242447 
L 198.826892 122.02112 
L 201.530067 119.473876 
L 204.233242 118.964578 
L 206.936418 119.363292 
L 209.639593 120.470504 
L 212.342769 127.525924 
L 215.045944 137.817275 
L 217.749119 141.51011 
L 220.452295 139.517967 
L 223.15547 134.401008 
L 225.858645 128.308246 
L 228.561821 125.592224 
L 231.264996 128.662633 
L 233.968172 133.172228 
L 236.671347 135.644472 
" clip-path="url(#pb0860fc5a0)" style="fill: none; stroke-dasharray: 1,1.65; stroke-dashoffset: 0; stroke: #cc79a7"/>
   </g>
   <g id="line2d_17">
    <path d="M 77.184 100.182022 
L 79.887175 96.972575 
L 82.590351 98.092614 
L 85.293526 107.889386 
L 87.996701 123.599778 
L 90.699877 140.28165 
L 93.403052 157.065011 
L 96.106228 163.176821 
L 98.809403 153.99812 
L 101.512578 138.302212 
L 104.215754 120.947697 
L 106.918929 106.120194 
L 109.622104 96.498685 
L 112.32528 93.807979 
L 115.028455 94.072406 
L 117.731631 92.151892 
L 120.434806 87.197048 
L 123.137981 81.003275 
L 125.841157 83.59693 
L 128.544332 103.351977 
L 131.247507 130.77483 
L 133.950683 157.425588 
L 136.653858 173.638584 
L 139.357034 166.547073 
L 142.060209 145.898969 
L 144.763384 124.244984 
L 147.46656 108.200921 
L 150.169735 96.918824 
L 152.87291 91.923688 
L 155.576086 91.559159 
L 158.279261 90.505855 
L 160.982437 86.93994 
L 163.685612 82.036353 
L 166.388787 85.721212 
L 169.091963 105.707494 
L 171.795138 133.516168 
L 174.498313 160.4161 
L 177.201489 175.269251 
L 179.904664 166.664329 
L 182.60784 145.586436 
L 185.311015 123.983723 
L 188.01419 108.197941 
L 190.717366 97.452556 
L 193.420541 93.293851 
L 196.123716 93.700379 
L 198.826892 92.775809 
L 201.530067 88.662619 
L 204.233242 82.820218 
L 206.936418 84.228386 
L 209.639593 102.591535 
L 212.342769 130.002861 
L 215.045944 157.086528 
L 217.749119 174.511775 
L 220.452295 168.951837 
L 223.15547 149.047356 
L 225.858645 127.233859 
L 228.561821 110.835483 
L 231.264996 99.134597 
L 233.968172 93.941393 
L 236.671347 94.017004 
" clip-path="url(#pb0860fc5a0)" style="fill: none; stroke-dasharray: 5,1.6; stroke-dashoffset: 0; stroke: #56b4e9"/>
   </g>
   <g id="patch_3">
    <path d="M 77.184 202.831145 
L 77.184 60.48 
" style="fill: none; stroke: #000000; stroke-width: 0.65; stroke-linejoin: miter; stroke-linecap: square"/>
   </g>
   <g id="patch_4">
    <path d="M 236.671347 202.831145 
L 236.671347 60.48 
" style="fill: none; stroke: #000000; stroke-width: 0.65; stroke-linejoin: miter; stroke-linecap: square"/>
   </g>
   <g id="patch_5">
    <path d="M 77.184 202.831145 
L 236.671347 202.831145 
" style="fill: none; stroke: #000000; stroke-width: 0.65; stroke-linejoin: miter; stroke-linecap: square"/>
   </g>
   <g id="patch_6">
    <path d="M 77.184 60.48 
L 236.671347 60.48 
" style="fill: none; stroke: #000000; stroke-width: 0.65; stroke-linejoin: miter; stroke-linecap: square"/>
   </g>
   <g id="line2d_18">
    <path d="M 77.184 99.848294 
L 79.887175 94.781224 
L 82.590351 98.890367 
L 85.293526 108.003716 
L 87.996701 121.292173 
L 90.699877 139.61566 
L 93.403052 155.934699 
L 96.106228 164.102784 
L 98.809403 161.158922 
L 101.512578 149.196408 
L 104.215754 134.806488 
L 106.918929 123.566542 
L 109.622104 117.09857 
L 112.32528 116.418693 
L 115.028455 117.049001 
L 117.731631 115.424073 
L 120.434806 110.650265 
L 123.137981 102.404637 
L 125.841157 94.094116 
L 128.544332 88.246175 
L 131.247507 89.291937 
L 133.950683 98.065577 
L 136.653858 117.697555 
L 139.357034 142.672809 
L 142.060209 163.947007 
L 144.763384 171.088404 
L 147.46656 162.171726 
L 150.169735 142.224259 
L 152.87291 119.113279 
L 155.576086 103.298401 
L 158.279261 94.83028 
L 160.982437 93.612316 
L 163.685612 98.116747 
L 166.388787 96.97043 
L 169.091963 88.386206 
L 171.795138 78.668576 
L 174.498313 80.205746 
L 177.201489 94.998759 
L 179.904664 120.362373 
L 182.60784 153.962515 
L 185.311015 173.484071 
L 188.01419 170.815373 
L 190.717366 148.035042 
L 193.420541 121.610503 
L 196.123716 100.259287 
L 198.826892 87.615619 
L 201.530067 82.043787 
L 204.233242 79.19556 
L 206.936418 77.685771 
L 209.639593 74.958677 
L 212.342769 76.54715 
L 215.045944 91.588673 
L 217.749119 118.375798 
L 220.452295 145.930832 
L 223.15547 156.537513 
L 225.858645 146.121941 
L 228.561821 124.940856 
L 231.264996 108.943098 
L 233.968172 101.771796 
L 236.671347 99.716199 
" clip-path="url(#pb0860fc5a0)" style="fill: none; stroke: #d55e00; stroke-width: 1.65; stroke-linecap: square"/>
   </g>
   <g id="line2d_19">
    <path d="M 77.184 99.60765 
L 79.887175 96.767796 
L 82.590351 98.654512 
L 85.293526 106.880996 
L 87.996701 121.310242 
L 90.699877 139.452491 
L 93.403052 155.958283 
L 96.106228 164.270897 
L 98.809403 161.21827 
L 101.512578 149.669199 
L 104.215754 135.510558 
L 106.918929 123.498535 
L 109.622104 116.287479 
L 112.32528 114.421165 
L 115.028455 115.703067 
L 117.731631 116.135495 
L 120.434806 112.384986 
L 123.137981 104.026298 
L 125.841157 94.35624 
L 128.544332 88.37755 
L 131.247507 89.581109 
L 133.950683 99.171994 
L 136.653858 117.108076 
L 139.357034 141.178572 
L 142.060209 163.622456 
L 144.763384 172.68626 
L 147.46656 163.269199 
L 150.169735 142.354218 
L 152.87291 120.53117 
L 155.576086 103.918526 
L 158.279261 95.224299 
L 160.982437 94.761568 
L 163.685612 97.929931 
L 166.388787 97.550704 
L 169.091963 90.025498 
L 171.795138 80.237479 
L 174.498313 79.736013 
L 177.201489 95.693277 
L 179.904664 124.625774 
L 182.60784 156.732688 
L 185.311015 178.372319 
L 188.01419 175.476816 
L 190.717366 149.767806 
L 193.420541 119.604348 
L 196.123716 96.482052 
L 198.826892 81.470639 
L 201.530067 75.542054 
L 204.233242 77.131253 
L 206.936418 78.026733 
L 209.639593 72.487708 
L 212.342769 66.950507 
L 215.045944 77.494959 
L 217.749119 109.905387 
L 220.452295 147.817011 
L 223.15547 168.162629 
L 225.858645 158.489056 
L 228.561821 130.204355 
L 231.264996 109.499881 
L 233.968172 102.477159 
L 236.671347 99.155785 
" clip-path="url(#pb0860fc5a0)" style="fill: none; stroke-dasharray: 4.255,1.84; stroke-dashoffset: 0; stroke: #222222; stroke-width: 1.15"/>
   </g>
  </g>
  <g id="axes_2">
   <g id="patch_7">
    <path d="M 308.440653 202.831145 
L 467.928 202.831145 
L 467.928 60.48 
L 308.440653 60.48 
z
" style="fill: #ffffff"/>
   </g>
   <g id="matplotlib.axis_3">
    <g id="xtick_5">
     <g id="line2d_20">
      <g>
       <use xlink:href="#m65087b0567" x="346.285108" y="202.831145" style="stroke: #000000; stroke-width: 0.8"/>
      </g>
     </g>
     <g id="text_11">
      <text style="font-size: 10.94415px; font-family: 'STIXGeneral'; text-anchor: middle" x="346.285108" y="218.039257" transform="rotate(-0 346.285108 218.039257)">0.5</text>
     </g>
    </g>
    <g id="xtick_6">
     <g id="line2d_21">
      <g>
       <use xlink:href="#m65087b0567" x="386.832739" y="202.831145" style="stroke: #000000; stroke-width: 0.8"/>
      </g>
     </g>
     <g id="text_12">
      <text style="font-size: 10.94415px; font-family: 'STIXGeneral'; text-anchor: middle" x="386.832739" y="218.039257" transform="rotate(-0 386.832739 218.039257)">1.0</text>
     </g>
    </g>
    <g id="xtick_7">
     <g id="line2d_22">
      <g>
       <use xlink:href="#m65087b0567" x="427.380369" y="202.831145" style="stroke: #000000; stroke-width: 0.8"/>
      </g>
     </g>
     <g id="text_13">
      <text style="font-size: 10.94415px; font-family: 'STIXGeneral'; text-anchor: middle" x="427.380369" y="218.039257" transform="rotate(-0 427.380369 218.039257)">1.5</text>
     </g>
    </g>
    <g id="xtick_8">
     <g id="line2d_23">
      <g>
       <use xlink:href="#m65087b0567" x="467.928" y="202.831145" style="stroke: #000000; stroke-width: 0.8"/>
      </g>
     </g>
     <g id="text_14">
      <text style="font-size: 10.94415px; font-family: 'STIXGeneral'; text-anchor: middle" x="467.928" y="218.039257" transform="rotate(-0 467.928 218.039257)">2.0</text>
     </g>
    </g>
    <g id="text_15">
     <text style="font-size: 10.94415px; font-family: 'STIXGeneral'; text-anchor: middle" x="388.184327" y="232.983407" transform="rotate(-0 388.184327 232.983407)">Time</text>
    </g>
   </g>
   <g id="matplotlib.axis_4">
    <g id="ytick_5">
     <g id="line2d_24">
      <path d="M 308.440653 193.359284 
L 467.928 193.359284 
" clip-path="url(#p02962c9862)" style="fill: none; stroke: #dddddd; stroke-width: 0.3; stroke-linecap: square"/>
     </g>
     <g id="line2d_25">
      <g>
       <use xlink:href="#m01119f259a" x="308.440653" y="193.359284" style="stroke: #000000; stroke-width: 0.8"/>
      </g>
     </g>
     <g id="text_16">
      <text style="font-size: 10.94415px; font-family: 'STIXGeneral'; text-anchor: end" x="301.440653" y="197.46334" transform="rotate(-0 301.440653 197.46334)">−40</text>
     </g>
    </g>
    <g id="ytick_6">
     <g id="line2d_26">
      <path d="M 308.440653 163.400089 
L 467.928 163.400089 
" clip-path="url(#p02962c9862)" style="fill: none; stroke: #dddddd; stroke-width: 0.3; stroke-linecap: square"/>
     </g>
     <g id="line2d_27">
      <g>
       <use xlink:href="#m01119f259a" x="308.440653" y="163.400089" style="stroke: #000000; stroke-width: 0.8"/>
      </g>
     </g>
     <g id="text_17">
      <text style="font-size: 10.94415px; font-family: 'STIXGeneral'; text-anchor: end" x="301.440653" y="167.504146" transform="rotate(-0 301.440653 167.504146)">−20</text>
     </g>
    </g>
    <g id="ytick_7">
     <g id="line2d_28">
      <path d="M 308.440653 133.440895 
L 467.928 133.440895 
" clip-path="url(#p02962c9862)" style="fill: none; stroke: #dddddd; stroke-width: 0.3; stroke-linecap: square"/>
     </g>
     <g id="line2d_29">
      <g>
       <use xlink:href="#m01119f259a" x="308.440653" y="133.440895" style="stroke: #000000; stroke-width: 0.8"/>
      </g>
     </g>
     <g id="text_18">
      <text style="font-size: 10.94415px; font-family: 'STIXGeneral'; text-anchor: end" x="301.440653" y="137.544951" transform="rotate(-0 301.440653 137.544951)">0</text>
     </g>
    </g>
    <g id="ytick_8">
     <g id="line2d_30">
      <path d="M 308.440653 103.4817 
L 467.928 103.4817 
" clip-path="url(#p02962c9862)" style="fill: none; stroke: #dddddd; stroke-width: 0.3; stroke-linecap: square"/>
     </g>
     <g id="line2d_31">
      <g>
       <use xlink:href="#m01119f259a" x="308.440653" y="103.4817" style="stroke: #000000; stroke-width: 0.8"/>
      </g>
     </g>
     <g id="text_19">
      <text style="font-size: 10.94415px; font-family: 'STIXGeneral'; text-anchor: end" x="301.440653" y="107.585756" transform="rotate(-0 301.440653 107.585756)">20</text>
     </g>
    </g>
    <g id="ytick_9">
     <g id="line2d_32">
      <path d="M 308.440653 73.522505 
L 467.928 73.522505 
" clip-path="url(#p02962c9862)" style="fill: none; stroke: #dddddd; stroke-width: 0.3; stroke-linecap: square"/>
     </g>
     <g id="line2d_33">
      <g>
       <use xlink:href="#m01119f259a" x="308.440653" y="73.522505" style="stroke: #000000; stroke-width: 0.8"/>
      </g>
     </g>
     <g id="text_20">
      <text style="font-size: 10.94415px; font-family: 'STIXGeneral'; text-anchor: end" x="301.440653" y="77.626562" transform="rotate(-0 301.440653 77.626562)">40</text>
     </g>
    </g>
    <g id="text_21">
     <!-- $x_2$ -->
     <g transform="translate(276.263723 136.252115) rotate(-90)">
      <text>
       <tspan x="0" y="-0.171875" style="font-style: italic; font-size: 10.94415px; font-family: 'STIXGeneral'">x</tspan>
       <tspan x="4.856232" y="1.469747" style="font-size: 7.660905px; font-family: 'STIXGeneral'">2</tspan>
      </text>
     </g>
    </g>
   </g>
   <g id="line2d_34">
    <path d="M 308.440653 157.407039 
L 311.143828 159.002259 
L 313.847004 146.111336 
L 316.550179 127.05931 
L 319.253355 111.457574 
L 321.95653 101.197318 
L 324.659705 98.530987 
L 327.362881 104.860013 
L 330.066056 111.842559 
L 332.769231 114.805894 
L 335.472407 110.494184 
L 338.175582 97.608305 
L 340.878758 85.500442 
L 343.581933 81.754691 
L 346.285108 94.884485 
L 348.988284 122.188136 
L 351.691459 154.92221 
L 354.394634 177.092003 
L 357.09781 178.924995 
L 359.800985 159.043332 
L 362.50416 127.973674 
L 365.207336 100.325934 
L 367.910511 86.710373 
L 370.613687 87.080804 
L 373.316862 92.923136 
L 376.020037 93.520396 
L 378.723213 85.560845 
L 381.426388 75.375891 
L 384.129563 75.238817 
L 386.832739 93.953889 
L 389.535914 129.517268 
L 392.23909 168.643233 
L 394.942265 193.8231 
L 397.64544 193.373549 
L 400.348616 167.945276 
L 403.051791 129.562892 
L 405.754966 94.086856 
L 408.458142 72.651021 
L 411.161317 66.976162 
L 413.864493 71.402335 
L 416.567668 78.677519 
L 419.270843 85.487745 
L 421.974019 93.591877 
L 424.677194 106.839088 
L 427.380369 126.52814 
L 430.083545 149.067162 
L 432.78672 167.178207 
L 435.489896 173.868134 
L 438.193071 166.058176 
L 440.896246 145.950552 
L 443.599422 119.563866 
L 446.302597 94.043515 
L 449.005772 75.30229 
L 451.708948 66.950507 
L 454.412123 70.076749 
L 457.115299 83.317679 
L 459.818474 102.966526 
L 462.521649 123.649391 
L 465.224825 139.904989 
L 467.928 148.284375 
" clip-path="url(#p02962c9862)" style="fill: none; stroke: #0072b2; stroke-linecap: square"/>
   </g>
   <g id="line2d_35">
    <path d="M 308.440653 156.320053 
L 311.143828 150.393095 
L 313.847004 136.066494 
L 316.550179 124.195319 
L 319.253355 113.852695 
L 321.95653 107.835698 
L 324.659705 106.151137 
L 327.362881 107.469765 
L 330.066056 110.872965 
L 332.769231 114.656461 
L 335.472407 115.626508 
L 338.175582 111.414875 
L 340.878758 102.046739 
L 343.581933 93.393127 
L 346.285108 93.08365 
L 348.988284 107.106006 
L 351.691459 133.842518 
L 354.394634 162.02094 
L 357.09781 178.517726 
L 359.800985 172.972613 
L 362.50416 148.437038 
L 365.207336 116.844894 
L 367.910511 94.154229 
L 370.613687 88.778049 
L 373.316862 97.081818 
L 376.020037 107.047919 
L 378.723213 107.166297 
L 381.426388 96.256266 
L 384.129563 84.230457 
L 386.832739 85.612073 
L 389.535914 108.064658 
L 392.23909 145.706508 
L 394.942265 181.259633 
L 397.64544 196.360638 
L 400.348616 183.029281 
L 403.051791 148.448624 
L 405.754966 110.286935 
L 408.458142 85.605284 
L 411.161317 81.257028 
L 413.864493 91.593745 
L 416.567668 104.424068 
L 419.270843 110.337116 
L 421.974019 108.644655 
L 424.677194 106.428427 
L 427.380369 111.913583 
L 430.083545 127.66713 
L 432.78672 148.262575 
L 435.489896 163.82012 
L 438.193071 166.373536 
L 440.896246 154.551532 
L 443.599422 133.760598 
L 446.302597 112.414319 
L 449.005772 97.34604 
L 451.708948 91.293849 
L 454.412123 93.360849 
L 457.115299 101.015636 
L 459.818474 111.678314 
L 462.521649 123.012496 
L 465.224825 132.617969 
L 467.928 138.308438 
" clip-path="url(#p02962c9862)" style="fill: none; stroke-dasharray: 3.7,1.6; stroke-dashoffset: 0; stroke: #e69f00"/>
   </g>
   <g id="line2d_36">
    <path d="M 308.440653 156.934475 
L 311.143828 158.912741 
L 313.847004 148.928438 
L 316.550179 128.527285 
L 319.253355 107.920337 
L 321.95653 96.424469 
L 324.659705 97.892329 
L 327.362881 107.236392 
L 330.066056 115.335927 
L 332.769231 116.141778 
L 335.472407 109.081162 
L 338.175582 98.876258 
L 340.878758 90.444843 
L 343.581933 87.627243 
L 346.285108 92.398498 
L 348.988284 106.42663 
L 351.691459 128.811369 
L 354.394634 154.511393 
L 357.09781 172.889962 
L 359.800985 173.398915 
L 362.50416 151.84165 
L 365.207336 116.607198 
L 367.910511 84.204623 
L 370.613687 70.664196 
L 373.316862 79.22024 
L 376.020037 99.364801 
L 378.723213 112.837658 
L 381.426388 109.05095 
L 384.129563 91.699977 
L 386.832739 78.457237 
L 389.535914 85.851466 
L 392.23909 118.495033 
L 394.942265 161.931751 
L 397.64544 193.782366 
L 400.348616 195.437441 
L 403.051791 166.69739 
L 405.754966 122.236927 
L 408.458142 84.907178 
L 411.161317 68.265151 
L 413.864493 73.645903 
L 416.567668 88.448917 
L 419.270843 100.75279 
L 421.974019 103.299871 
L 424.677194 101.507408 
L 427.380369 102.81848 
L 430.083545 115.110987 
L 432.78672 135.187907 
L 435.489896 156.670702 
L 438.193071 168.05223 
L 440.896246 166.330777 
L 443.599422 151.053641 
L 446.302597 131.185524 
L 449.005772 111.46369 
L 451.708948 98.879296 
L 454.412123 91.355492 
L 457.115299 90.57005 
L 459.818474 92.199117 
L 462.521649 99.405363 
L 465.224825 108.662169 
L 467.928 122.567214 
" clip-path="url(#p02962c9862)" style="fill: none; stroke-dasharray: 6.4,1.6,1,1.6; stroke-dashoffset: 0; stroke: #009e73"/>
   </g>
   <g id="line2d_37">
    <path d="M 308.440653 162.017495 
L 311.143828 162.456555 
L 313.847004 143.295568 
L 316.550179 117.903137 
L 319.253355 99.854761 
L 321.95653 90.835826 
L 324.659705 89.038137 
L 327.362881 91.701851 
L 330.066056 98.08346 
L 332.769231 108.771674 
L 335.472407 124.805086 
L 338.175582 143.996881 
L 340.878758 160.322215 
L 343.581933 166.907843 
L 346.285108 159.639643 
L 348.988284 143.723209 
L 351.691459 128.331947 
L 354.394634 117.447931 
L 357.09781 107.153064 
L 359.800985 96.738399 
L 362.50416 89.712174 
L 365.207336 87.588057 
L 367.910511 88.805217 
L 370.613687 92.395312 
L 373.316862 97.861539 
L 376.020037 105.670035 
L 378.723213 116.99239 
L 381.426388 132.175872 
L 384.129563 148.291274 
L 386.832739 160.304144 
L 389.535914 162.489103 
L 392.23909 154.515537 
L 394.942265 141.619836 
L 397.64544 131.085799 
L 400.348616 124.111407 
L 403.051791 117.113089 
L 405.754966 108.134844 
L 408.458142 97.891913 
L 411.161317 90.198201 
L 413.864493 87.448184 
L 416.567668 88.19257 
L 419.270843 91.371215 
L 421.974019 96.32974 
L 424.677194 103.286902 
L 427.380369 113.305523 
L 430.083545 127.238367 
L 432.78672 143.360055 
L 435.489896 157.065649 
L 438.193071 162.734706 
L 440.896246 157.693658 
L 443.599422 145.825817 
L 446.302597 134.19253 
L 449.005772 126.670557 
L 451.708948 120.273125 
L 454.412123 112.31532 
L 457.115299 102.33063 
L 459.818474 92.962661 
L 462.521649 88.124013 
L 465.224825 87.500215 
L 467.928 89.717014 
" clip-path="url(#p02962c9862)" style="fill: none; stroke-dasharray: 1,1.65; stroke-dashoffset: 0; stroke: #cc79a7"/>
   </g>
   <g id="line2d_38">
    <path d="M 308.440653 163.175878 
L 311.143828 161.61599 
L 313.847004 138.550016 
L 316.550179 112.181214 
L 319.253355 94.529643 
L 321.95653 86.860972 
L 324.659705 87.776652 
L 327.362881 96.06709 
L 330.066056 101.441845 
L 332.769231 98.390692 
L 335.472407 89.365282 
L 338.175582 82.928128 
L 340.878758 89.726686 
L 343.581933 115.168945 
L 346.285108 147.449914 
L 348.988284 172.387926 
L 351.691459 176.321028 
L 354.394634 149.956097 
L 357.09781 111.885632 
L 359.800985 90.092447 
L 362.50416 84.113978 
L 365.207336 83.170909 
L 367.910511 90.591346 
L 370.613687 99.013365 
L 373.316862 98.730801 
L 376.020037 91.016311 
L 378.723213 85.171659 
L 381.426388 91.735666 
L 384.129563 116.906676 
L 386.832739 150.23416 
L 389.535914 175.046019 
L 392.23909 176.256054 
L 394.942265 147.72527 
L 397.64544 110.215292 
L 400.348616 89.620142 
L 403.051791 84.391278 
L 405.754966 84.495737 
L 408.458142 92.765739 
L 411.161317 101.155873 
L 413.864493 100.147327 
L 416.567668 91.600412 
L 419.270843 84.507873 
L 421.974019 89.458265 
L 424.677194 113.263356 
L 427.380369 146.386771 
L 430.083545 172.310429 
L 432.78672 177.770804 
L 435.489896 153.253832 
L 438.193071 115.169761 
L 440.896246 92.031698 
L 443.599422 85.532453 
L 446.302597 84.110503 
L 449.005772 91.479771 
L 451.708948 100.576489 
L 454.412123 101.08506 
L 457.115299 93.176885 
L 459.818474 85.050298 
L 462.521649 87.099998 
L 465.224825 107.568394 
L 467.928 140.606443 
" clip-path="url(#p02962c9862)" style="fill: none; stroke-dasharray: 5,1.6; stroke-dashoffset: 0; stroke: #56b4e9"/>
   </g>
   <g id="patch_8">
    <path d="M 308.440653 202.831145 
L 308.440653 60.48 
" style="fill: none; stroke: #000000; stroke-width: 0.65; stroke-linejoin: miter; stroke-linecap: square"/>
   </g>
   <g id="patch_9">
    <path d="M 467.928 202.831145 
L 467.928 60.48 
" style="fill: none; stroke: #000000; stroke-width: 0.65; stroke-linejoin: miter; stroke-linecap: square"/>
   </g>
   <g id="patch_10">
    <path d="M 308.440653 202.831145 
L 467.928 202.831145 
" style="fill: none; stroke: #000000; stroke-width: 0.65; stroke-linejoin: miter; stroke-linecap: square"/>
   </g>
   <g id="patch_11">
    <path d="M 308.440653 60.48 
L 467.928 60.48 
" style="fill: none; stroke: #000000; stroke-width: 0.65; stroke-linejoin: miter; stroke-linecap: square"/>
   </g>
   <g id="line2d_39">
    <path d="M 308.440653 157.68293 
L 311.143828 158.526571 
L 313.847004 144.428233 
L 316.550179 124.022491 
L 319.253355 107.574792 
L 321.95653 100.365 
L 324.659705 101.293077 
L 327.362881 106.930065 
L 330.066056 113.195691 
L 332.769231 115.3897 
L 335.472407 109.462676 
L 338.175582 98.509906 
L 340.878758 88.902178 
L 343.581933 86.222968 
L 346.285108 92.405473 
L 348.988284 106.44751 
L 351.691459 127.638959 
L 354.394634 152.346292 
L 357.09781 169.907649 
L 359.800985 167.880803 
L 362.50416 142.85824 
L 365.207336 110.064019 
L 367.910511 89.135634 
L 370.613687 82.265931 
L 373.316862 85.425521 
L 376.020037 95.25648 
L 378.723213 106.652219 
L 381.426388 107.93571 
L 384.129563 95.204028 
L 386.832739 79.332854 
L 389.535914 81.719193 
L 392.23909 105.893621 
L 394.942265 141.616276 
L 397.64544 172.048615 
L 400.348616 182.550365 
L 403.051791 162.55259 
L 405.754966 118.948913 
L 408.458142 84.091097 
L 411.161317 74.951133 
L 413.864493 75.44002 
L 416.567668 80.013429 
L 419.270843 85.579724 
L 421.974019 91.028476 
L 424.677194 86.26449 
L 427.380369 84.353968 
L 430.083545 101.226415 
L 432.78672 138.611151 
L 435.489896 167.409592 
L 438.193071 166.772423 
L 440.896246 132.490944 
L 443.599422 95.759977 
L 446.302597 84.536897 
L 449.005772 94.088897 
L 451.708948 101.157098 
L 454.412123 101.683756 
L 457.115299 98.584599 
L 459.818474 102.22571 
L 462.521649 112.888056 
L 465.224825 131.19809 
L 467.928 145.752694 
" clip-path="url(#p02962c9862)" style="fill: none; stroke: #d55e00; stroke-width: 1.65; stroke-linecap: square"/>
   </g>
   <g id="line2d_40">
    <path d="M 308.440653 157.671229 
L 311.143828 158.454337 
L 313.847004 144.925385 
L 316.550179 124.802085 
L 319.253355 108.734705 
L 321.95653 100.969764 
L 324.659705 100.607818 
L 327.362881 105.835111 
L 330.066056 112.7646 
L 332.769231 115.623561 
L 335.472407 111.053926 
L 338.175582 100.415628 
L 340.878758 89.728383 
L 343.581933 86.30901 
L 346.285108 92.87853 
L 348.988284 107.257051 
L 351.691459 127.141871 
L 354.394634 150.620271 
L 357.09781 169.987967 
L 359.800985 169.886877 
L 362.50416 144.473968 
L 365.207336 110.965009 
L 367.910511 89.292519 
L 370.613687 82.098835 
L 373.316862 84.311303 
L 376.020037 94.165754 
L 378.723213 105.436273 
L 381.426388 107.177983 
L 384.129563 96.028344 
L 386.832739 81.043876 
L 389.535914 80.834071 
L 392.23909 105.302947 
L 394.942265 141.951998 
L 397.64544 173.052526 
L 400.348616 186.213223 
L 403.051791 167.171043 
L 405.754966 118.538812 
L 408.458142 79.486596 
L 411.161317 68.892999 
L 413.864493 69.86075 
L 416.567668 75.403759 
L 419.270843 88.190155 
L 421.974019 95.987809 
L 424.677194 87.993068 
L 427.380369 75.304502 
L 430.083545 85.13502 
L 432.78672 129.572589 
L 435.489896 176.16508 
L 438.193071 186.298125 
L 440.896246 152.536754 
L 443.599422 97.746336 
L 446.302597 73.65617 
L 449.005772 88.094401 
L 451.708948 99.535069 
L 454.412123 96.908317 
L 457.115299 92.734263 
L 459.818474 96.677458 
L 462.521649 112.041165 
L 465.224825 134.499861 
L 467.928 153.305404 
" clip-path="url(#p02962c9862)" style="fill: none; stroke-dasharray: 4.255,1.84; stroke-dashoffset: 0; stroke: #222222; stroke-width: 1.15"/>
   </g>
  </g>
  <g id="axes_3">
   <g id="patch_12">
    <path d="M 77.184 433.44 
L 236.671347 433.44 
L 236.671347 291.088855 
L 77.184 291.088855 
z
" style="fill: #ffffff"/>
   </g>
   <g id="matplotlib.axis_5">
    <g id="xtick_9">
     <g id="line2d_41">
      <g>
       <use xlink:href="#m65087b0567" x="115.028455" y="433.44" style="stroke: #000000; stroke-width: 0.8"/>
      </g>
     </g>
     <g id="text_22">
      <text style="font-size: 10.94415px; font-family: 'STIXGeneral'; text-anchor: middle" x="115.028455" y="448.648112" transform="rotate(-0 115.028455 448.648112)">0.5</text>
     </g>
    </g>
    <g id="xtick_10">
     <g id="line2d_42">
      <g>
       <use xlink:href="#m65087b0567" x="155.576086" y="433.44" style="stroke: #000000; stroke-width: 0.8"/>
      </g>
     </g>
     <g id="text_23">
      <text style="font-size: 10.94415px; font-family: 'STIXGeneral'; text-anchor: middle" x="155.576086" y="448.648112" transform="rotate(-0 155.576086 448.648112)">1.0</text>
     </g>
    </g>
    <g id="xtick_11">
     <g id="line2d_43">
      <g>
       <use xlink:href="#m65087b0567" x="196.123716" y="433.44" style="stroke: #000000; stroke-width: 0.8"/>
      </g>
     </g>
     <g id="text_24">
      <text style="font-size: 10.94415px; font-family: 'STIXGeneral'; text-anchor: middle" x="196.123716" y="448.648112" transform="rotate(-0 196.123716 448.648112)">1.5</text>
     </g>
    </g>
    <g id="xtick_12">
     <g id="line2d_44">
      <g>
       <use xlink:href="#m65087b0567" x="236.671347" y="433.44" style="stroke: #000000; stroke-width: 0.8"/>
      </g>
     </g>
     <g id="text_25">
      <text style="font-size: 10.94415px; font-family: 'STIXGeneral'; text-anchor: middle" x="236.671347" y="448.648112" transform="rotate(-0 236.671347 448.648112)">2.0</text>
     </g>
    </g>
    <g id="text_26">
     <text style="font-size: 10.94415px; font-family: 'STIXGeneral'; text-anchor: middle" x="156.927673" y="463.592262" transform="rotate(-0 156.927673 463.592262)">Time</text>
    </g>
   </g>
   <g id="matplotlib.axis_6">
    <g id="ytick_10">
     <g id="line2d_45">
      <path d="M 77.184 431.316971 
L 236.671347 431.316971 
" clip-path="url(#p300b92a04b)" style="fill: none; stroke: #dddddd; stroke-width: 0.3; stroke-linecap: square"/>
     </g>
     <g id="line2d_46">
      <g>
       <use xlink:href="#m01119f259a" x="77.184" y="431.316971" style="stroke: #000000; stroke-width: 0.8"/>
      </g>
     </g>
     <g id="text_27">
      <text style="font-size: 10.94415px; font-family: 'STIXGeneral'; text-anchor: end" x="70.184" y="435.421027" transform="rotate(-0 70.184 435.421027)">−20</text>
     </g>
    </g>
    <g id="ytick_11">
     <g id="line2d_47">
      <path d="M 77.184 402.464054 
L 236.671347 402.464054 
" clip-path="url(#p300b92a04b)" style="fill: none; stroke: #dddddd; stroke-width: 0.3; stroke-linecap: square"/>
     </g>
     <g id="line2d_48">
      <g>
       <use xlink:href="#m01119f259a" x="77.184" y="402.464054" style="stroke: #000000; stroke-width: 0.8"/>
      </g>
     </g>
     <g id="text_28">
      <text style="font-size: 10.94415px; font-family: 'STIXGeneral'; text-anchor: end" x="70.184" y="406.56811" transform="rotate(-0 70.184 406.56811)">0</text>
     </g>
    </g>
    <g id="ytick_12">
     <g id="line2d_49">
      <path d="M 77.184 373.611137 
L 236.671347 373.611137 
" clip-path="url(#p300b92a04b)" style="fill: none; stroke: #dddddd; stroke-width: 0.3; stroke-linecap: square"/>
     </g>
     <g id="line2d_50">
      <g>
       <use xlink:href="#m01119f259a" x="77.184" y="373.611137" style="stroke: #000000; stroke-width: 0.8"/>
      </g>
     </g>
     <g id="text_29">
      <text style="font-size: 10.94415px; font-family: 'STIXGeneral'; text-anchor: end" x="70.184" y="377.715194" transform="rotate(-0 70.184 377.715194)">20</text>
     </g>
    </g>
    <g id="ytick_13">
     <g id="line2d_51">
      <path d="M 77.184 344.758221 
L 236.671347 344.758221 
" clip-path="url(#p300b92a04b)" style="fill: none; stroke: #dddddd; stroke-width: 0.3; stroke-linecap: square"/>
     </g>
     <g id="line2d_52">
      <g>
       <use xlink:href="#m01119f259a" x="77.184" y="344.758221" style="stroke: #000000; stroke-width: 0.8"/>
      </g>
     </g>
     <g id="text_30">
      <text style="font-size: 10.94415px; font-family: 'STIXGeneral'; text-anchor: end" x="70.184" y="348.862277" transform="rotate(-0 70.184 348.862277)">40</text>
     </g>
    </g>
    <g id="ytick_14">
     <g id="line2d_53">
      <path d="M 77.184 315.905304 
L 236.671347 315.905304 
" clip-path="url(#p300b92a04b)" style="fill: none; stroke: #dddddd; stroke-width: 0.3; stroke-linecap: square"/>
     </g>
     <g id="line2d_54">
      <g>
       <use xlink:href="#m01119f259a" x="77.184" y="315.905304" style="stroke: #000000; stroke-width: 0.8"/>
      </g>
     </g>
     <g id="text_31">
      <text style="font-size: 10.94415px; font-family: 'STIXGeneral'; text-anchor: end" x="70.184" y="320.00936" transform="rotate(-0 70.184 320.00936)">60</text>
     </g>
    </g>
    <g id="text_32">
     <!-- $x_3$ -->
     <g transform="translate(45.00707 366.86097) rotate(-90)">
      <text>
       <tspan x="0" y="-0.171875" style="font-style: italic; font-size: 10.94415px; font-family: 'STIXGeneral'">x</tspan>
       <tspan x="4.856232" y="1.469747" style="font-size: 7.660905px; font-family: 'STIXGeneral'">3</tspan>
      </text>
     </g>
    </g>
   </g>
   <g id="line2d_55">
    <path d="M 77.184 349.461561 
L 79.887175 370.217402 
L 82.590351 385.718219 
L 85.293526 394.678087 
L 87.996701 395.944635 
L 90.699877 397.29323 
L 93.403052 397.027388 
L 96.106228 397.379054 
L 98.809403 397.180218 
L 101.512578 397.122042 
L 104.215754 397.462688 
L 106.918929 394.814327 
L 109.622104 384.322742 
L 112.32528 363.883071 
L 115.028455 337.522839 
L 117.731631 315.709165 
L 120.434806 310.212117 
L 123.137981 325.60726 
L 125.841157 355.566599 
L 128.544332 386.621213 
L 131.247507 405.149432 
L 133.950683 408.007493 
L 136.653858 401.822323 
L 139.357034 398.525157 
L 142.060209 404.575423 
L 144.763384 415.809616 
L 147.46656 419.844062 
L 150.169735 405.675983 
L 152.87291 372.518974 
L 155.576086 332.425247 
L 158.279261 303.161833 
L 160.982437 297.559362 
L 163.685612 315.494323 
L 166.388787 344.777304 
L 169.091963 369.475863 
L 171.795138 380.061621 
L 174.498313 378.190155 
L 177.201489 373.596822 
L 179.904664 375.689562 
L 182.60784 386.361171 
L 185.311015 398.838694 
L 188.01419 403.005237 
L 190.717366 393.0356 
L 193.420541 371.774051 
L 196.123716 349.102579 
L 198.826892 335.680697 
L 201.530067 336.611783 
L 204.233242 349.072156 
L 206.936418 365.031354 
L 209.639593 376.621975 
L 212.342769 380.476626 
L 215.045944 378.443653 
L 217.749119 375.000621 
L 220.452295 373.631025 
L 223.15547 374.776585 
L 225.858645 376.309418 
L 228.561821 375.683165 
L 231.264996 371.919586 
L 233.968172 366.183723 
L 236.671347 360.878424 
" clip-path="url(#p300b92a04b)" style="fill: none; stroke: #0072b2; stroke-linecap: square"/>
   </g>
   <g id="line2d_56">
    <path d="M 77.184 346.825839 
L 79.887175 372.334349 
L 82.590351 386.612813 
L 85.293526 393.967807 
L 87.996701 395.24075 
L 90.699877 394.09816 
L 93.403052 396.17822 
L 96.106228 399.696219 
L 98.809403 402.873875 
L 101.512578 404.637555 
L 104.215754 404.284933 
L 106.918929 401.302646 
L 109.622104 394.271997 
L 112.32528 379.594341 
L 115.028455 358.76794 
L 117.731631 336.222844 
L 120.434806 321.914195 
L 123.137981 323.530142 
L 125.841157 341.592603 
L 128.544332 368.465156 
L 131.247507 391.157577 
L 133.950683 401.384251 
L 136.653858 399.088801 
L 139.357034 393.537155 
L 142.060209 394.448365 
L 144.763384 405.00699 
L 147.46656 417.734316 
L 150.169735 420.034614 
L 152.87291 403.1315 
L 155.576086 369.706287 
L 158.279261 333.283322 
L 160.982437 310.036688 
L 163.685612 308.460769 
L 166.388787 324.01128 
L 169.091963 342.798473 
L 171.795138 351.382293 
L 174.498313 346.01297 
L 177.201489 334.795338 
L 179.904664 331.438748 
L 182.60784 345.25387 
L 185.311015 374.266815 
L 188.01419 406.218029 
L 190.717366 426.418423 
L 193.420541 426.969493 
L 196.123716 411.22368 
L 198.826892 390.779466 
L 201.530067 377.573051 
L 204.233242 376.40315 
L 206.936418 382.738054 
L 209.639593 386.627464 
L 212.342769 379.787521 
L 215.045944 361.087331 
L 217.749119 337.252561 
L 220.452295 318.772933 
L 223.15547 313.874612 
L 225.858645 324.193761 
L 228.561821 344.376363 
L 231.264996 365.433554 
L 233.968172 379.67667 
L 236.671347 384.51047 
" clip-path="url(#p300b92a04b)" style="fill: none; stroke-dasharray: 3.7,1.6; stroke-dashoffset: 0; stroke: #e69f00"/>
   </g>
   <g id="line2d_57">
    <path d="M 77.184 349.615861 
L 79.887175 371.359137 
L 82.590351 387.079738 
L 85.293526 391.769527 
L 87.996701 392.920899 
L 90.699877 391.816041 
L 93.403052 393.00418 
L 96.106228 396.625329 
L 98.809403 400.696512 
L 101.512578 403.623222 
L 104.215754 403.063581 
L 106.918929 397.323313 
L 109.622104 384.350361 
L 112.32528 363.742668 
L 115.028455 338.811958 
L 117.731631 317.518391 
L 120.434806 309.680161 
L 123.137981 321.261767 
L 125.841157 349.263499 
L 128.544332 381.815466 
L 131.247507 404.3312 
L 133.950683 408.680092 
L 136.653858 398.413149 
L 139.357034 386.452027 
L 142.060209 385.574954 
L 144.763384 399.054016 
L 147.46656 417.415093 
L 150.169735 424.941175 
L 152.87291 410.541 
L 155.576086 376.475738 
L 158.279261 337.548958 
L 160.982437 312.506262 
L 163.685612 312.109835 
L 166.388787 333.313913 
L 169.091963 361.534727 
L 171.795138 380.735316 
L 174.498313 382.605273 
L 177.201489 370.959938 
L 179.904664 357.121222 
L 182.60784 352.222421 
L 185.311015 359.459896 
L 188.01419 373.528768 
L 190.717366 384.33591 
L 193.420541 384.797228 
L 196.123716 374.536449 
L 198.826892 360.512014 
L 201.530067 351.259858 
L 204.233242 352.327777 
L 206.936418 362.060712 
L 209.639593 374.201266 
L 212.342769 381.038587 
L 215.045944 379.401674 
L 217.749119 370.879676 
L 220.452295 361.494412 
L 223.15547 355.99804 
L 225.858645 356.495105 
L 228.561821 360.209498 
L 231.264996 364.013107 
L 233.968172 365.448962 
L 236.671347 366.446339 
" clip-path="url(#p300b92a04b)" style="fill: none; stroke-dasharray: 6.4,1.6,1,1.6; stroke-dashoffset: 0; stroke: #009e73"/>
   </g>
   <g id="line2d_58">
    <path d="M 77.184 350.838428 
L 79.887175 375.76402 
L 82.590351 397.446612 
L 85.293526 400.677756 
L 87.996701 392.47206 
L 90.699877 379.430052 
L 93.403052 365.869954 
L 96.106228 354.627546 
L 98.809403 344.340606 
L 101.512578 334.897472 
L 104.215754 328.502477 
L 106.918929 329.771525 
L 109.622104 342.587449 
L 112.32528 363.119287 
L 115.028455 384.890013 
L 117.731631 399.810341 
L 120.434806 403.100543 
L 123.137981 401.696084 
L 125.841157 398.567731 
L 128.544332 392.047023 
L 131.247507 381.302643 
L 133.950683 369.973957 
L 136.653858 361.013535 
L 139.357034 353.747632 
L 142.060209 346.988563 
L 144.763384 340.099201 
L 147.46656 333.880272 
L 150.169735 331.039069 
L 152.87291 335.908261 
L 155.576086 349.824166 
L 158.279261 368.529707 
L 160.982437 387.075348 
L 163.685612 398.651158 
L 166.388787 401.982389 
L 169.091963 402.3558 
L 171.795138 401.696565 
L 174.498313 399.318572 
L 177.201489 393.539019 
L 179.904664 383.339001 
L 182.60784 371.807673 
L 185.311015 362.584305 
L 188.01419 355.319888 
L 190.717366 348.814907 
L 193.420541 342.192369 
L 196.123716 335.750982 
L 198.826892 331.571387 
L 201.530067 333.631745 
L 204.233242 344.830818 
L 206.936418 362.417512 
L 209.639593 381.403566 
L 212.342769 395.793898 
L 215.045944 401.317575 
L 217.749119 402.33007 
L 220.452295 402.144904 
L 223.15547 400.689602 
L 225.858645 396.639679 
L 228.561821 388.291706 
L 231.264996 376.687713 
L 233.968172 366.347031 
L 236.671347 358.368056 
" clip-path="url(#p300b92a04b)" style="fill: none; stroke-dasharray: 1,1.65; stroke-dashoffset: 0; stroke: #cc79a7"/>
   </g>
   <g id="line2d_59">
    <path d="M 77.184 352.426548 
L 79.887175 376.894925 
L 82.590351 396.698213 
L 85.293526 399.006982 
L 87.996701 390.703615 
L 90.699877 384.136643 
L 93.403052 387.222602 
L 96.106228 396.59518 
L 98.809403 401.201526 
L 101.512578 398.194353 
L 104.215754 387.564183 
L 106.918929 367.385115 
L 109.622104 337.778466 
L 112.32528 314.613459 
L 115.028455 319.662657 
L 117.731631 342.615623 
L 120.434806 372.972345 
L 123.137981 401.253339 
L 125.841157 404.834823 
L 128.544332 382.750681 
L 131.247507 367.957165 
L 133.950683 369.999589 
L 136.653858 384.541582 
L 139.357034 394.971773 
L 142.060209 393.636718 
L 144.763384 383.072336 
L 147.46656 364.269406 
L 150.169735 337.479261 
L 152.87291 313.88602 
L 155.576086 319.822585 
L 158.279261 344.511337 
L 160.982437 375.374356 
L 163.685612 402.941796 
L 166.388787 404.950496 
L 169.091963 382.210517 
L 171.795138 368.097111 
L 174.498313 371.594538 
L 177.201489 386.907034 
L 179.904664 396.696898 
L 182.60784 395.325061 
L 185.311015 385.26739 
L 188.01419 366.98875 
L 190.717366 339.966555 
L 193.420541 314.130386 
L 196.123716 317.82848 
L 198.826892 340.482648 
L 201.530067 370.820425 
L 204.233242 399.52056 
L 206.936418 406.072725 
L 209.639593 384.363828 
L 212.342769 368.807471 
L 215.045944 370.196019 
L 217.749119 384.703219 
L 220.452295 396.219496 
L 223.15547 396.322677 
L 225.858645 387.690581 
L 228.561821 371.028819 
L 231.264996 345.397937 
L 233.968172 316.597278 
L 236.671347 315.487061 
" clip-path="url(#p300b92a04b)" style="fill: none; stroke-dasharray: 5,1.6; stroke-dashoffset: 0; stroke: #56b4e9"/>
   </g>
   <g id="patch_13">
    <path d="M 77.184 433.44 
L 77.184 291.088855 
" style="fill: none; stroke: #000000; stroke-width: 0.65; stroke-linejoin: miter; stroke-linecap: square"/>
   </g>
   <g id="patch_14">
    <path d="M 236.671347 433.44 
L 236.671347 291.088855 
" style="fill: none; stroke: #000000; stroke-width: 0.65; stroke-linejoin: miter; stroke-linecap: square"/>
   </g>
   <g id="patch_15">
    <path d="M 77.184 433.44 
L 236.671347 433.44 
" style="fill: none; stroke: #000000; stroke-width: 0.65; stroke-linejoin: miter; stroke-linecap: square"/>
   </g>
   <g id="patch_16">
    <path d="M 77.184 291.088855 
L 236.671347 291.088855 
" style="fill: none; stroke: #000000; stroke-width: 0.65; stroke-linejoin: miter; stroke-linecap: square"/>
   </g>
   <g id="line2d_60">
    <path d="M 77.184 349.705039 
L 79.887175 369.826918 
L 82.590351 387.948134 
L 85.293526 395.236011 
L 87.996701 394.105948 
L 90.699877 393.03408 
L 93.403052 394.783669 
L 96.106228 399.837789 
L 98.809403 404.253402 
L 101.512578 406.694224 
L 104.215754 405.004692 
L 106.918929 397.217462 
L 109.622104 382.030924 
L 112.32528 361.9279 
L 115.028455 341.756396 
L 117.731631 325.974213 
L 120.434806 318.522189 
L 123.137981 324.033596 
L 125.841157 346.099109 
L 128.544332 378.296675 
L 131.247507 403.699541 
L 133.950683 406.689081 
L 136.653858 395.382712 
L 139.357034 389.420609 
L 142.060209 394.120016 
L 144.763384 403.577203 
L 147.46656 410.098728 
L 150.169735 411.01334 
L 152.87291 403.32026 
L 155.576086 381.473628 
L 158.279261 347.590566 
L 160.982437 319.139366 
L 163.685612 311.469189 
L 166.388787 327.699093 
L 169.091963 362.116591 
L 171.795138 398.734847 
L 174.498313 411.950189 
L 177.201489 392.296852 
L 179.904664 368.732387 
L 182.60784 365.643612 
L 185.311015 375.349167 
L 188.01419 387.048439 
L 190.717366 390.133602 
L 193.420541 380.93895 
L 196.123716 357.77831 
L 198.826892 330.126016 
L 201.530067 320.759889 
L 204.233242 343.952248 
L 206.936418 380.195665 
L 209.639593 401.172824 
L 212.342769 387.764866 
L 215.045944 357.633452 
L 217.749119 340.762039 
L 220.452295 339.414422 
L 223.15547 343.784758 
L 225.858645 345.370948 
L 228.561821 341.541666 
L 231.264996 336.518467 
L 233.968172 336.598264 
L 236.671347 346.684752 
" clip-path="url(#p300b92a04b)" style="fill: none; stroke: #d55e00; stroke-width: 1.65; stroke-linecap: square"/>
   </g>
   <g id="line2d_61">
    <path d="M 77.184 349.320523 
L 79.887175 370.411418 
L 82.590351 388.530644 
L 85.293526 395.714747 
L 87.996701 394.158499 
L 90.699877 392.058789 
L 93.403052 394.358466 
L 96.106228 399.678175 
L 98.809403 403.959133 
L 101.512578 405.538491 
L 104.215754 404.131362 
L 106.918929 397.326243 
L 109.622104 382.522942 
L 112.32528 361.866776 
L 115.028455 341.668919 
L 117.731631 326.750656 
L 120.434806 319.424827 
L 123.137981 323.472704 
L 125.841157 344.113356 
L 128.544332 377.2565 
L 131.247507 402.989277 
L 133.950683 406.147583 
L 136.653858 395.192491 
L 139.357034 388.004832 
L 142.060209 392.406473 
L 144.763384 402.912076 
L 147.46656 409.717395 
L 150.169735 410.322829 
L 152.87291 403.35479 
L 155.576086 382.189362 
L 158.279261 347.604155 
L 160.982437 317.848283 
L 163.685612 310.289543 
L 166.388787 326.106148 
L 169.091963 360.58198 
L 171.795138 401.366788 
L 174.498313 417.023115 
L 177.201489 396.441505 
L 179.904664 372.975227 
L 182.60784 369.754739 
L 185.311015 384.29642 
L 188.01419 400.684223 
L 190.717366 406.157662 
L 193.420541 399.041894 
L 196.123716 373.372525 
L 198.826892 332.566969 
L 201.530067 308.284922 
L 204.233242 327.583901 
L 206.936418 373.622036 
L 209.639593 410.885733 
L 212.342769 406.356737 
L 215.045944 362.754016 
L 217.749119 331.100343 
L 220.452295 324.911007 
L 223.15547 329.163549 
L 225.858645 334.761569 
L 228.561821 332.923919 
L 231.264996 326.271135 
L 233.968172 327.336731 
L 236.671347 341.054203 
" clip-path="url(#p300b92a04b)" style="fill: none; stroke-dasharray: 4.255,1.84; stroke-dashoffset: 0; stroke: #222222; stroke-width: 1.15"/>
   </g>
  </g>
  <g id="axes_4">
   <g id="patch_17">
    <path d="M 308.440653 433.44 
L 467.928 433.44 
L 467.928 291.088855 
L 308.440653 291.088855 
z
" style="fill: #ffffff"/>
   </g>
   <g id="matplotlib.axis_7">
    <g id="xtick_13">
     <g id="line2d_62">
      <g>
       <use xlink:href="#m65087b0567" x="346.285108" y="433.44" style="stroke: #000000; stroke-width: 0.8"/>
      </g>
     </g>
     <g id="text_33">
      <text style="font-size: 10.94415px; font-family: 'STIXGeneral'; text-anchor: middle" x="346.285108" y="448.648112" transform="rotate(-0 346.285108 448.648112)">0.5</text>
     </g>
    </g>
    <g id="xtick_14">
     <g id="line2d_63">
      <g>
       <use xlink:href="#m65087b0567" x="386.832739" y="433.44" style="stroke: #000000; stroke-width: 0.8"/>
      </g>
     </g>
     <g id="text_34">
      <text style="font-size: 10.94415px; font-family: 'STIXGeneral'; text-anchor: middle" x="386.832739" y="448.648112" transform="rotate(-0 386.832739 448.648112)">1.0</text>
     </g>
    </g>
    <g id="xtick_15">
     <g id="line2d_64">
      <g>
       <use xlink:href="#m65087b0567" x="427.380369" y="433.44" style="stroke: #000000; stroke-width: 0.8"/>
      </g>
     </g>
     <g id="text_35">
      <text style="font-size: 10.94415px; font-family: 'STIXGeneral'; text-anchor: middle" x="427.380369" y="448.648112" transform="rotate(-0 427.380369 448.648112)">1.5</text>
     </g>
    </g>
    <g id="xtick_16">
     <g id="line2d_65">
      <g>
       <use xlink:href="#m65087b0567" x="467.928" y="433.44" style="stroke: #000000; stroke-width: 0.8"/>
      </g>
     </g>
     <g id="text_36">
      <text style="font-size: 10.94415px; font-family: 'STIXGeneral'; text-anchor: middle" x="467.928" y="448.648112" transform="rotate(-0 467.928 448.648112)">2.0</text>
     </g>
    </g>
    <g id="text_37">
     <text style="font-size: 10.94415px; font-family: 'STIXGeneral'; text-anchor: middle" x="388.184327" y="463.592262" transform="rotate(-0 388.184327 463.592262)">Time</text>
    </g>
   </g>
   <g id="matplotlib.axis_8">
    <g id="ytick_15">
     <g id="line2d_66">
      <path d="M 308.440653 433.44 
L 467.928 433.44 
" clip-path="url(#p4ce3c41cee)" style="fill: none; stroke: #dddddd; stroke-width: 0.3; stroke-linecap: square"/>
     </g>
     <g id="line2d_67">
      <g>
       <use xlink:href="#m01119f259a" x="308.440653" y="433.44" style="stroke: #000000; stroke-width: 0.8"/>
      </g>
     </g>
     <g id="text_38">
      <text style="font-size: 10.94415px; font-family: 'STIXGeneral'; text-anchor: end" x="301.440653" y="437.544056" transform="rotate(-0 301.440653 437.544056)">0.00</text>
     </g>
    </g>
    <g id="ytick_16">
     <g id="line2d_68">
      <path d="M 308.440653 407.580327 
L 467.928 407.580327 
" clip-path="url(#p4ce3c41cee)" style="fill: none; stroke: #dddddd; stroke-width: 0.3; stroke-linecap: square"/>
     </g>
     <g id="line2d_69">
      <g>
       <use xlink:href="#m01119f259a" x="308.440653" y="407.580327" style="stroke: #000000; stroke-width: 0.8"/>
      </g>
     </g>
     <g id="text_39">
      <text style="font-size: 10.94415px; font-family: 'STIXGeneral'; text-anchor: end" x="301.440653" y="411.684383" transform="rotate(-0 301.440653 411.684383)">0.25</text>
     </g>
    </g>
    <g id="ytick_17">
     <g id="line2d_70">
      <path d="M 308.440653 381.720655 
L 467.928 381.720655 
" clip-path="url(#p4ce3c41cee)" style="fill: none; stroke: #dddddd; stroke-width: 0.3; stroke-linecap: square"/>
     </g>
     <g id="line2d_71">
      <g>
       <use xlink:href="#m01119f259a" x="308.440653" y="381.720655" style="stroke: #000000; stroke-width: 0.8"/>
      </g>
     </g>
     <g id="text_40">
      <text style="font-size: 10.94415px; font-family: 'STIXGeneral'; text-anchor: end" x="301.440653" y="385.824711" transform="rotate(-0 301.440653 385.824711)">0.50</text>
     </g>
    </g>
    <g id="ytick_18">
     <g id="line2d_72">
      <path d="M 308.440653 355.860982 
L 467.928 355.860982 
" clip-path="url(#p4ce3c41cee)" style="fill: none; stroke: #dddddd; stroke-width: 0.3; stroke-linecap: square"/>
     </g>
     <g id="line2d_73">
      <g>
       <use xlink:href="#m01119f259a" x="308.440653" y="355.860982" style="stroke: #000000; stroke-width: 0.8"/>
      </g>
     </g>
     <g id="text_41">
      <text style="font-size: 10.94415px; font-family: 'STIXGeneral'; text-anchor: end" x="301.440653" y="359.965038" transform="rotate(-0 301.440653 359.965038)">0.75</text>
     </g>
    </g>
    <g id="ytick_19">
     <g id="line2d_74">
      <path d="M 308.440653 330.001309 
L 467.928 330.001309 
" clip-path="url(#p4ce3c41cee)" style="fill: none; stroke: #dddddd; stroke-width: 0.3; stroke-linecap: square"/>
     </g>
     <g id="line2d_75">
      <g>
       <use xlink:href="#m01119f259a" x="308.440653" y="330.001309" style="stroke: #000000; stroke-width: 0.8"/>
      </g>
     </g>
     <g id="text_42">
      <text style="font-size: 10.94415px; font-family: 'STIXGeneral'; text-anchor: end" x="301.440653" y="334.105365" transform="rotate(-0 301.440653 334.105365)">1.00</text>
     </g>
    </g>
    <g id="ytick_20">
     <g id="line2d_76">
      <path d="M 308.440653 304.141636 
L 467.928 304.141636 
" clip-path="url(#p4ce3c41cee)" style="fill: none; stroke: #dddddd; stroke-width: 0.3; stroke-linecap: square"/>
     </g>
     <g id="line2d_77">
      <g>
       <use xlink:href="#m01119f259a" x="308.440653" y="304.141636" style="stroke: #000000; stroke-width: 0.8"/>
      </g>
     </g>
     <g id="text_43">
      <text style="font-size: 10.94415px; font-family: 'STIXGeneral'; text-anchor: end" x="301.440653" y="308.245693" transform="rotate(-0 301.440653 308.245693)">1.25</text>
     </g>
    </g>
    <g id="text_44">
     <text style="font-size: 10.94415px; font-family: 'STIXGeneral'; text-anchor: middle" x="275.552353" y="362.264427" transform="rotate(-90 275.552353 362.264427)">Error</text>
    </g>
   </g>
   <g id="line2d_78">
    <path d="M 308.440653 430.684849 
L 311.143828 417.593097 
L 313.847004 417.372829 
L 316.550179 415.197893 
L 319.253355 413.018596 
L 321.95653 412.661028 
L 324.659705 411.523572 
L 327.362881 409.544856 
L 330.066056 407.231747 
L 332.769231 405.252054 
L 335.472407 404.501135 
L 338.175582 404.390794 
L 340.878758 403.368332 
L 343.581933 401.69472 
L 346.285108 400.606152 
L 348.988284 399.725369 
L 351.691459 397.617494 
L 354.394634 394.991409 
L 357.09781 392.813918 
L 359.800985 391.305907 
L 362.50416 390.606265 
L 365.207336 390.209543 
L 367.910511 388.805434 
L 370.613687 386.642675 
L 373.316862 384.723928 
L 376.020037 382.599881 
L 378.723213 380.353192 
L 381.426388 379.173457 
L 384.129563 377.953344 
L 386.832739 373.45092 
L 389.535914 366.138817 
L 392.23909 360.34009 
L 394.942265 357.934283 
L 397.64544 357.303924 
L 400.348616 356.904697 
L 403.051791 356.535109 
L 405.754966 355.894967 
L 408.458142 354.735093 
L 411.161317 353.399058 
L 413.864493 352.00865 
L 416.567668 350.585738 
L 419.270843 349.718622 
L 421.974019 349.637977 
L 424.677194 349.459458 
L 427.380369 348.205494 
L 430.083545 346.326112 
L 432.78672 345.117712 
L 435.489896 344.858537 
L 438.193071 344.851201 
L 440.896246 344.624186 
L 443.599422 344.049084 
L 446.302597 343.02889 
L 449.005772 341.754012 
L 451.708948 340.78456 
L 454.412123 340.385259 
L 457.115299 340.198997 
L 459.818474 339.936579 
L 462.521649 339.792297 
L 465.224825 339.965035 
L 467.928 340.340489 
" clip-path="url(#p4ce3c41cee)" style="fill: none; stroke: #0072b2; stroke-linecap: square"/>
   </g>
   <g id="line2d_79">
    <path d="M 308.440653 429.523994 
L 311.143828 417.298351 
L 313.847004 414.283958 
L 316.550179 414.433675 
L 319.253355 412.825941 
L 321.95653 412.947575 
L 324.659705 413.116105 
L 327.362881 412.010489 
L 330.066056 411.309548 
L 332.769231 410.317439 
L 335.472407 409.170122 
L 338.175582 408.617172 
L 340.878758 408.212144 
L 343.581933 407.015886 
L 346.285108 405.911089 
L 348.988284 406.252431 
L 351.691459 406.527336 
L 354.394634 405.032629 
L 357.09781 403.739055 
L 359.800985 403.699535 
L 362.50416 403.732033 
L 365.207336 403.199767 
L 367.910511 402.315996 
L 370.613687 400.994711 
L 373.316862 399.425151 
L 376.020037 397.89704 
L 378.723213 396.200452 
L 381.426388 393.868036 
L 384.129563 390.491176 
L 386.832739 383.930059 
L 389.535914 372.599852 
L 392.23909 360.460341 
L 394.942265 352.973221 
L 397.64544 350.776669 
L 400.348616 350.367514 
L 403.051791 349.543609 
L 405.754966 348.589842 
L 408.458142 347.897699 
L 411.161317 347.903427 
L 413.864493 348.568472 
L 416.567668 347.93806 
L 419.270843 344.389946 
L 421.974019 340.089972 
L 424.677194 338.009271 
L 427.380369 337.425042 
L 430.083545 336.095222 
L 432.78672 334.336657 
L 435.489896 333.486347 
L 438.193071 333.473671 
L 440.896246 333.626764 
L 443.599422 333.742294 
L 446.302597 333.849784 
L 449.005772 333.951563 
L 451.708948 334.478061 
L 454.412123 335.515437 
L 457.115299 335.656554 
L 459.818474 333.759853 
L 462.521649 331.017893 
L 465.224825 329.274163 
L 467.928 328.886431 
" clip-path="url(#p4ce3c41cee)" style="fill: none; stroke-dasharray: 3.7,1.6; stroke-dashoffset: 0; stroke: #e69f00"/>
   </g>
   <g id="line2d_80">
    <path d="M 308.440653 431.962593 
L 311.143828 425.734332 
L 313.847004 424.609743 
L 316.550179 424.233078 
L 319.253355 423.64424 
L 321.95653 423.554395 
L 324.659705 423.685444 
L 327.362881 423.3117 
L 330.066056 422.327136 
L 332.769231 421.486806 
L 335.472407 420.72588 
L 338.175582 419.369014 
L 340.878758 418.667388 
L 343.581933 417.881879 
L 346.285108 416.428388 
L 348.988284 415.324589 
L 351.691459 414.414097 
L 354.394634 413.874891 
L 357.09781 413.440039 
L 359.800985 412.380357 
L 362.50416 411.321138 
L 365.207336 409.966182 
L 367.910511 408.85205 
L 370.613687 408.47157 
L 373.316862 407.478634 
L 376.020037 406.539756 
L 378.723213 405.801677 
L 381.426388 403.87582 
L 384.129563 403.211208 
L 386.832739 399.601084 
L 389.535914 386.031334 
L 392.23909 371.010816 
L 394.942265 362.393137 
L 397.64544 360.499457 
L 400.348616 360.527188 
L 403.051791 358.855061 
L 405.754966 356.304028 
L 408.458142 354.397049 
L 411.161317 353.547081 
L 413.864493 353.302734 
L 416.567668 352.926867 
L 419.270843 351.834772 
L 421.974019 350.908079 
L 424.677194 350.675972 
L 427.380369 348.945544 
L 430.083545 345.395765 
L 432.78672 341.562102 
L 435.489896 340.20111 
L 438.193071 340.188679 
L 440.896246 340.079304 
L 443.599422 338.871622 
L 446.302597 336.705123 
L 449.005772 334.895502 
L 451.708948 333.56601 
L 454.412123 332.82741 
L 457.115299 332.366519 
L 459.818474 331.655855 
L 462.521649 331.461173 
L 465.224825 330.535932 
L 467.928 330.148831 
" clip-path="url(#p4ce3c41cee)" style="fill: none; stroke-dasharray: 6.4,1.6,1,1.6; stroke-dashoffset: 0; stroke: #009e73"/>
   </g>
   <g id="line2d_81">
    <path d="M 308.440653 412.883342 
L 311.143828 391.203508 
L 313.847004 368.168164 
L 316.550179 346.716601 
L 319.253355 329.185682 
L 321.95653 316.285024 
L 324.659705 307.921498 
L 327.362881 303.152021 
L 330.066056 300.215322 
L 332.769231 298.389961 
L 335.472407 298.6095 
L 338.175582 301.161855 
L 340.878758 304.582533 
L 343.581933 307.895224 
L 346.285108 311.527293 
L 348.988284 315.710127 
L 351.691459 319.290979 
L 354.394634 320.533677 
L 357.09781 318.999973 
L 359.800985 315.828249 
L 362.50416 312.453635 
L 365.207336 309.739658 
L 367.910511 308.160393 
L 370.613687 307.693722 
L 373.316862 307.888979 
L 376.020037 308.459547 
L 378.723213 309.281589 
L 381.426388 310.135832 
L 384.129563 310.626976 
L 386.832739 310.653333 
L 389.535914 310.492611 
L 392.23909 309.837281 
L 394.942265 308.12519 
L 397.64544 305.613293 
L 400.348616 303.122648 
L 403.051791 301.174219 
L 405.754966 299.933397 
L 408.458142 299.485504 
L 411.161317 299.332938 
L 413.864493 299.011162 
L 416.567668 299.170711 
L 419.270843 300.133184 
L 421.974019 301.335717 
L 424.677194 302.384503 
L 427.380369 303.56178 
L 430.083545 304.827994 
L 432.78672 305.210704 
L 435.489896 304.364438 
L 438.193071 302.694782 
L 440.896246 300.63336 
L 443.599422 298.824149 
L 446.302597 297.827693 
L 449.005772 297.891426 
L 451.708948 298.807027 
L 454.412123 299.907482 
L 457.115299 300.623227 
L 459.818474 300.546865 
L 462.521649 299.642114 
L 465.224825 298.728584 
L 467.928 298.593294 
" clip-path="url(#p4ce3c41cee)" style="fill: none; stroke-dasharray: 1,1.65; stroke-dashoffset: 0; stroke: #cc79a7"/>
   </g>
   <g id="line2d_82">
    <path d="M 308.440653 419.934686 
L 311.143828 410.787698 
L 313.847004 404.853978 
L 316.550179 400.810066 
L 319.253355 397.725184 
L 321.95653 395.067888 
L 324.659705 392.305913 
L 327.362881 388.966231 
L 330.066056 384.786039 
L 332.769231 379.557234 
L 335.472407 373.402146 
L 338.175582 366.815291 
L 340.878758 360.544581 
L 343.581933 355.350364 
L 346.285108 351.364741 
L 348.988284 348.21943 
L 351.691459 346.009291 
L 354.394634 344.512047 
L 357.09781 343.318297 
L 359.800985 342.260635 
L 362.50416 341.896766 
L 365.207336 341.649409 
L 367.910511 339.906222 
L 370.613687 336.264728 
L 373.316862 332.055875 
L 376.020037 328.713927 
L 378.723213 326.210399 
L 381.426388 324.253545 
L 384.129563 322.60023 
L 386.832739 320.958824 
L 389.535914 319.170458 
L 392.23909 317.481394 
L 394.942265 316.201278 
L 397.64544 315.439909 
L 400.348616 315.245891 
L 403.051791 315.665623 
L 405.754966 316.200434 
L 408.458142 316.113035 
L 411.161317 315.018481 
L 413.864493 313.570133 
L 416.567668 312.335806 
L 419.270843 311.449517 
L 421.974019 311.095868 
L 424.677194 310.960749 
L 427.380369 310.448091 
L 430.083545 309.482039 
L 432.78672 308.203077 
L 435.489896 307.007876 
L 438.193071 306.291791 
L 440.896246 306.11773 
L 443.599422 306.489326 
L 446.302597 307.335593 
L 449.005772 308.172029 
L 451.708948 308.606208 
L 454.412123 308.440929 
L 457.115299 307.927296 
L 459.818474 307.491124 
L 462.521649 307.318271 
L 465.224825 307.215197 
L 467.928 306.935256 
" clip-path="url(#p4ce3c41cee)" style="fill: none; stroke-dasharray: 5,1.6; stroke-dashoffset: 0; stroke: #56b4e9"/>
   </g>
   <g id="line2d_83">
    <path d="M 386.832739 433.44 
L 386.832739 291.088855 
" clip-path="url(#p4ce3c41cee)" style="fill: none; stroke-dasharray: 0.7,1.155; stroke-dashoffset: 0; stroke: #555555; stroke-width: 0.7"/>
   </g>
   <g id="patch_18">
    <path d="M 308.440653 433.44 
L 308.440653 291.088855 
" style="fill: none; stroke: #000000; stroke-width: 0.65; stroke-linejoin: miter; stroke-linecap: square"/>
   </g>
   <g id="patch_19">
    <path d="M 467.928 433.44 
L 467.928 291.088855 
" style="fill: none; stroke: #000000; stroke-width: 0.65; stroke-linejoin: miter; stroke-linecap: square"/>
   </g>
   <g id="patch_20">
    <path d="M 308.440653 433.44 
L 467.928 433.44 
" style="fill: none; stroke: #000000; stroke-width: 0.65; stroke-linejoin: miter; stroke-linecap: square"/>
   </g>
   <g id="patch_21">
    <path d="M 308.440653 291.088855 
L 467.928 291.088855 
" style="fill: none; stroke: #000000; stroke-width: 0.65; stroke-linejoin: miter; stroke-linecap: square"/>
   </g>
   <g id="line2d_84">
    <path d="M 308.440653 432.604462 
L 311.143828 429.89382 
L 313.847004 429.677845 
L 316.550179 429.783436 
L 319.253355 429.786564 
L 321.95653 429.794938 
L 324.659705 429.991337 
L 327.362881 429.985892 
L 330.066056 430.026362 
L 332.769231 429.98903 
L 335.472407 429.909191 
L 338.175582 429.870643 
L 340.878758 429.765786 
L 343.581933 429.682955 
L 346.285108 429.590043 
L 348.988284 429.45896 
L 351.691459 429.351288 
L 354.394634 429.354622 
L 357.09781 429.260192 
L 359.800985 429.011486 
L 362.50416 428.726023 
L 365.207336 428.42433 
L 367.910511 428.121129 
L 370.613687 427.74865 
L 373.316862 427.415288 
L 376.020037 427.067758 
L 378.723213 426.567248 
L 381.426388 426.058354 
L 384.129563 425.477072 
L 386.832739 424.67349 
L 389.535914 423.44646 
L 392.23909 421.949905 
L 394.942265 420.221479 
L 397.64544 418.505387 
L 400.348616 416.804382 
L 403.051791 414.889402 
L 405.754966 412.78076 
L 408.458142 410.400336 
L 411.161317 407.684269 
L 413.864493 404.88286 
L 416.567668 401.941858 
L 419.270843 399.079327 
L 421.974019 396.267968 
L 424.677194 393.541736 
L 427.380369 390.905512 
L 430.083545 388.526928 
L 432.78672 386.344303 
L 435.489896 384.404451 
L 438.193071 382.689867 
L 440.896246 381.156634 
L 443.599422 379.578249 
L 446.302597 377.658053 
L 449.005772 375.450117 
L 451.708948 373.11871 
L 454.412123 370.67268 
L 457.115299 368.136981 
L 459.818474 365.564719 
L 462.521649 363.271362 
L 465.224825 361.296812 
L 467.928 359.660114 
" clip-path="url(#p4ce3c41cee)" style="fill: none; stroke: #d55e00; stroke-width: 1.65; stroke-linecap: square"/>
   </g>
  </g>
  <g id="text_45">
   <text style="font-size: 10.94415px; font-family: 'STIXGeneral'; text-anchor: middle" x="156.927673" y="247.927557" transform="rotate(-0 156.927673 247.927557)">(a)</text>
  </g>
  <g id="text_46">
   <text style="font-size: 10.94415px; font-family: 'STIXGeneral'; text-anchor: middle" x="388.184327" y="247.927557" transform="rotate(-0 388.184327 247.927557)">(b)</text>
  </g>
  <g id="text_47">
   <text style="font-size: 10.94415px; font-family: 'STIXGeneral'; text-anchor: middle" x="156.927673" y="478.536412" transform="rotate(-0 156.927673 478.536412)">(c)</text>
  </g>
  <g id="text_48">
   <text style="font-size: 10.94415px; font-family: 'STIXGeneral'; text-anchor: middle" x="388.184327" y="478.536412" transform="rotate(-0 388.184327 478.536412)">(d)</text>
  </g>
  <g id="legend_1">
   <g id="line2d_85">
    <path d="M 89.703895 16.747395 
L 97.3648 16.747395 
L 105.025705 16.747395 
" style="fill: none; stroke-dasharray: 4.255,1.84; stroke-dashoffset: 0; stroke: #222222; stroke-width: 1.15"/>
   </g>
   <g id="text_49">
    <text style="font-size: 10.94415px; font-family: 'STIXGeneral'; text-anchor: start" x="108.856157" y="20.577847" transform="rotate(-0 108.856157 20.577847)">Truth</text>
   </g>
   <g id="line2d_86">
    <path d="M 89.703895 33.16362 
L 97.3648 33.16362 
L 105.025705 33.16362 
" style="fill: none; stroke-dasharray: 1,1.65; stroke-dashoffset: 0; stroke: #cc79a7"/>
   </g>
   <g id="text_50">
    <text style="font-size: 10.94415px; font-family: 'STIXGeneral'; text-anchor: start" x="108.856157" y="36.994072" transform="rotate(-0 108.856157 36.994072)">Markov RBF</text>
   </g>
   <g id="line2d_87">
    <path d="M 174.587747 16.747395 
L 182.248652 16.747395 
L 189.909557 16.747395 
" style="fill: none; stroke: #0072b2; stroke-linecap: square"/>
   </g>
   <g id="text_51">
    <text style="font-size: 10.94415px; font-family: 'STIXGeneral'; text-anchor: start" x="193.74001" y="20.577847" transform="rotate(-0 193.74001 20.577847)">MLP–K</text>
   </g>
   <g id="line2d_88">
    <path d="M 174.587747 33.16362 
L 182.248652 33.16362 
L 189.909557 33.16362 
" style="fill: none; stroke-dasharray: 5,1.6; stroke-dashoffset: 0; stroke: #56b4e9"/>
   </g>
   <g id="text_52">
    <text style="font-size: 10.94415px; font-family: 'STIXGeneral'; text-anchor: start" x="193.74001" y="36.994072" transform="rotate(-0 193.74001 36.994072)">Delay–RBF</text>
   </g>
   <g id="line2d_89">
    <path d="M 253.944805 16.747395 
L 261.60571 16.747395 
L 269.266614 16.747395 
" style="fill: none; stroke-dasharray: 3.7,1.6; stroke-dashoffset: 0; stroke: #e69f00"/>
   </g>
   <g id="text_53">
    <text style="font-size: 10.94415px; font-family: 'STIXGeneral'; text-anchor: start" x="273.097067" y="20.577847" transform="rotate(-0 273.097067 20.577847)">LSTM–K</text>
   </g>
   <g id="line2d_90">
    <path d="M 253.944805 33.16362 
L 261.60571 33.16362 
L 269.266614 33.16362 
" style="fill: none; stroke: #d55e00; stroke-width: 1.65; stroke-linecap: square"/>
   </g>
   <g id="text_54">
    <text style="font-size: 10.94415px; font-family: 'STIXGeneral'; text-anchor: start" x="273.097067" y="36.994072" transform="rotate(-0 273.097067 36.994072)">DLM–K</text>
   </g>
   <g id="line2d_91">
    <path d="M 323.70179 16.747395 
L 331.362695 16.747395 
L 339.0236 16.747395 
" style="fill: none; stroke-dasharray: 6.4,1.6,1,1.6; stroke-dashoffset: 0; stroke: #009e73"/>
   </g>
   <g id="text_55">
    <text style="font-size: 10.94415px; font-family: 'STIXGeneral'; text-anchor: start" x="342.854053" y="20.577847" transform="rotate(-0 342.854053 20.577847)">HaKAN–K</text>
   </g>
  </g>
 </g>
 <defs>
  <clipPath id="pb0860fc5a0">
   <rect x="77.184" y="60.48" width="159.487347" height="142.351145"/>
  </clipPath>
  <clipPath id="p02962c9862">
   <rect x="308.440653" y="60.48" width="159.487347" height="142.351145"/>
  </clipPath>
  <clipPath id="p300b92a04b">
   <rect x="77.184" y="291.088855" width="159.487347" height="142.351145"/>
  </clipPath>
  <clipPath id="p4ce3c41cee">
   <rect x="308.440653" y="291.088855" width="159.487347" height="142.351145"/>
  </clipPath>
 </defs>
</svg>
